Genre:Family | Musical
Language:English
IMDb:http://www.imdb.com/title/tt1204342/
Source:720p TS XviD - SAiNTNiK Thanks!

Format : AVI
Format/Info : Audio Video Interleave
File size : 927 MiB
Duration : 1h 39mn
Overall bit rate : 1 309 Kbps

Video
ID : 0
Format : MPEG-4 Visual
Format profile : Advanced Simple@L5
Format settings, BVOP : Yes
Format settings, QPel : No
Format settings, GMC : No warppoints
Format settings, Matrix : Default (H.263)
Codec ID : XVID
Codec ID/Hint : XviD
Duration : 1h 39mn
Bit rate : 1 108 Kbps
Width : 640 pixels
Height : 272 pixels
Display aspect ratio : 2.35:1
Frame rate : 24.000 fps
Color space : YUV
Chroma subsampling : 4:2:0
Bit depth : 8 bits
Scan type : Progressive
Bits/(Pixel*Frame) : 0.265
Stream size : 785 MiB (85%)
Writing library : XviD 1.2.1 (UTC 2008-12-04)

Audio
ID : 1
Format : AC-3
Format/Info : Audio Coding 3
Mode extension : CM (complete main)
Codec ID : 2000
Duration : 1h 39mn
Bit rate mode : Constant
Bit rate : 192 Kbps
Channel(s) : 2 channels
Channel positions : Front: L R
Sampling rate : 48.0 KHz
Bit depth : 16 bits
Stream size : 136 MiB (15%)
Alignment : Aligned on interleaves
Interleave, duration : 42 ms (1.00 video frame)
Interleave, preload duration : 512 ms


Plot:
With the help of three fans, The Muppets must reunite to save their old theater from a greedy oil tycoon

Screens
 
http://img215.imageshack.us/img215/8453/vlcsnap00001eo.png
 
http://img838.imageshack.us/img838/7250/vlcsnap00002ko.png
 
http://img525.imageshack.us/img525/4802/vlcsnap00004rw.png
 
http://img155.imageshack.us/img155/9100/vlcsnap00003um.png